<svg width="144" height="144" viewBox="0 0 144 144" fill="none" xmlns="http://www.w3.org/2000/svg">
<path fill-rule="evenodd" clip-rule="evenodd" d="M45.4 35.4658C45.12 35.0414 44.84 34.6435 44.8 34.5905C44.76 34.5507 44.16 34.8955 43.4667 35.373C42.7733 35.8505 41.48 36.8054 40.6 37.5084C39.72 38.2113 38 39.7764 36.7867 40.9833C35.5733 42.1903 34.0667 43.7951 33.44 44.5644C32.8133 45.3336 31.8133 46.6467 31.2133 47.4823C30.6133 48.3178 30.1333 49.0341 30.1333 49.0738C30.1333 49.1136 30.5067 49.3789 30.9467 49.6707C31.4 49.9625 32.12 50.5858 32.5467 51.0633C32.9867 51.5408 33.5867 52.3764 33.8667 52.9202C34.1467 53.464 34.5067 54.3924 34.6667 54.976C34.84 55.6391 34.9333 56.4614 34.9333 57.1644C34.9333 57.8541 34.8267 58.7029 34.6667 59.3528C34.52 59.9364 34.1733 60.8648 33.9067 61.4086C33.5333 62.1513 33.1067 62.6951 32.2667 63.544C31.36 64.4591 30.9067 64.7907 30 65.2284C29.3733 65.5334 28.48 65.8783 28 66.0109C27.4933 66.1303 26.6 66.2231 25.8667 66.2231C25.1733 66.2231 24.2667 66.1568 23.8667 66.064C23.4667 65.9711 23.12 65.9181 23.1067 65.9446C23.08 65.9711 22.9467 66.6343 22.8 67.4433C22.6533 68.2391 22.4133 69.9103 22.2667 71.157C22.08 72.6955 22 74.3004 22 76.2235C22 78.213 22.08 79.7118 22.2667 81.2635C22.4133 82.497 22.5867 83.8499 22.6667 84.2875C22.7224 84.5927 22.7977 85.0139 22.8607 85.3669C22.8881 85.5202 22.9131 85.6606 22.9333 85.773C23.0667 86.476 23.0667 86.476 23.5067 86.3964C23.7333 86.3566 24.36 86.2637 24.8667 86.1974C25.4533 86.1179 26.2 86.1311 26.9067 86.2107C27.5067 86.277 28.3733 86.476 28.84 86.6484C29.2933 86.8075 30.0267 87.1524 30.4667 87.4044C30.9067 87.6564 31.72 88.3195 32.28 88.8633C33.0533 89.6326 33.4267 90.1366 33.8933 91.0517C34.2267 91.7282 34.6 92.7096 34.7333 93.3065C34.9067 94.1023 34.9467 94.6991 34.9067 95.6939C34.8533 96.6753 34.7333 97.312 34.4533 98.1475C34.24 98.7709 33.8 99.6861 33.4533 100.203C33.12 100.721 32.52 101.437 32.12 101.808C31.72 102.18 31.1333 102.644 30.8 102.856C30.6727 102.937 30.5512 103.014 30.4474 103.08C30.2795 103.187 30.1581 103.264 30.1333 103.28C30.0933 103.294 30.24 103.572 30.4533 103.877C30.6516 104.173 31.0802 104.767 31.4395 105.264L31.52 105.376C31.8933 105.893 32.6667 106.901 33.2533 107.631C33.84 108.36 35.2 109.846 36.2667 110.933C37.3333 112.021 38.92 113.506 39.8133 114.249C40.6933 114.978 42.1067 116.079 42.9467 116.676C43.7867 117.26 44.5333 117.777 44.6133 117.804C44.7067 117.817 45.0133 117.485 45.3067 117.048C45.6 116.61 46.2267 115.894 46.6933 115.456C47.2133 114.978 48 114.435 48.68 114.09C49.2933 113.785 50.1867 113.427 50.6667 113.307C51.2 113.175 52.0533 113.082 52.8667 113.082C53.6933 113.082 54.5333 113.175 55.0667 113.307C55.5467 113.427 56.44 113.785 57.0667 114.09C57.96 114.514 58.4267 114.872 59.28 115.708C60.1467 116.583 60.4667 117.021 60.9867 118.042C61.32 118.732 61.6933 119.713 61.8 120.231C61.9067 120.748 62 121.61 62 122.154C62 122.698 61.92 123.533 61.8267 123.997C61.72 124.541 61.7067 124.846 61.8 124.886C61.88 124.913 62.4133 125.019 63 125.125C63.5867 125.231 64.5467 125.377 65.1333 125.456C65.72 125.536 67.1067 125.695 68.2 125.801C69.3067 125.907 71.04 126 72.0667 126C73.0933 126 75.08 125.881 76.4667 125.735C77.8533 125.589 79.6933 125.35 80.5333 125.204C81.3733 125.058 82.12 124.913 82.2 124.886C82.28 124.846 82.2667 124.515 82.16 123.931C82.04 123.361 82 122.512 82.04 121.69C82.08 120.695 82.2 120.085 82.4933 119.236C82.6933 118.613 83.1467 117.697 83.4933 117.18C83.8267 116.663 84.4933 115.894 84.96 115.456C85.44 115.018 86.24 114.448 86.7467 114.169C87.2533 113.904 88.0533 113.573 88.5333 113.427C89.0133 113.281 89.88 113.122 90.4667 113.069C91.1867 113.016 91.88 113.042 92.6 113.175C93.1867 113.281 94.0267 113.506 94.4667 113.679C94.9067 113.838 95.68 114.262 96.2 114.607C96.72 114.939 97.4533 115.575 97.8533 116C98.24 116.437 98.7067 117.034 98.88 117.339C99.08 117.711 99.2667 117.883 99.3733 117.817C99.4434 117.782 100.036 117.37 100.746 116.876C100.847 116.807 100.949 116.735 101.053 116.663C101.893 116.066 103.307 114.978 104.187 114.249C105.08 113.506 106.667 112.021 107.747 110.933C108.813 109.846 110.28 108.214 111.013 107.299C111.733 106.384 112.693 105.124 113.133 104.487C113.573 103.851 113.907 103.307 113.867 103.28C113.827 103.267 113.44 103.015 113.013 102.723C112.587 102.432 111.893 101.835 111.48 101.397C111.013 100.906 110.493 100.137 110.12 99.4075C109.76 98.7179 109.4 97.7629 109.267 97.1528C109.093 96.3703 109.04 95.7469 109.093 94.7654C109.147 93.7707 109.253 93.1606 109.547 92.3117C109.76 91.6884 110.213 90.7732 110.56 90.256C110.893 89.7387 111.573 88.9562 112.08 88.492C112.653 87.9747 113.4 87.4574 114.067 87.1391C114.653 86.8606 115.52 86.529 116 86.3964C116.493 86.277 117.4 86.1709 118.133 86.1709C118.827 86.1709 119.733 86.2372 120.133 86.3301C120.533 86.4229 120.88 86.476 120.893 86.4494C120.92 86.4229 121.053 85.7465 121.2 84.9507C121.347 84.1549 121.587 82.4837 121.733 81.237C121.92 79.6985 122 78.0936 122 76.1572C122 74.181 121.92 72.6823 121.733 71.1172C121.587 69.897 121.347 68.2391 121.2 67.4433C121.053 66.6343 120.92 65.9711 120.893 65.9446C120.88 65.9181 120.533 65.9711 120.133 66.064C119.733 66.1568 118.827 66.2231 118.133 66.2231C117.4 66.2231 116.507 66.1303 116 66.0109C115.52 65.8783 114.653 65.5467 114.067 65.2682C113.36 64.9233 112.667 64.4458 112.013 63.8357C111.467 63.3317 110.787 62.5227 110.453 62.0054C110.147 61.4882 109.72 60.5995 109.507 60.016C109.173 59.061 109.133 58.7825 109.133 57.1644C109.133 55.5463 109.173 55.2677 109.507 54.3128C109.72 53.7292 110.107 52.8936 110.373 52.456C110.64 52.0183 111.173 51.3286 111.56 50.9307C111.933 50.5328 112.613 49.9625 113.053 49.6707C113.493 49.3789 113.867 49.1004 113.867 49.0341C113.867 48.981 113.387 48.2648 112.787 47.4425C112.187 46.6334 111.253 45.3867 110.693 44.697C110.12 44.0073 108.88 42.6412 107.933 41.673C106.987 40.6915 105.6 39.3652 104.867 38.7418C104.133 38.1052 102.933 37.1503 102.2 36.5932C101.467 36.0494 100.493 35.3465 100.04 35.0414L99.2 34.4844C98.5067 35.6648 97.8533 36.4208 97.32 36.9115C96.7067 37.4818 95.9467 38.0124 95.3333 38.3174C94.7867 38.596 93.9467 38.9143 93.4667 39.0336C92.9867 39.153 92.3067 39.2856 91.9333 39.3254L91.2667 39.405C94.68 42.6545 96.2667 44.2726 97 45.0949C97.7333 45.9172 98.8933 47.2833 99.5733 48.1322C100.253 48.981 101.32 50.4134 101.933 51.3286C102.547 52.2437 103.467 53.7292 103.987 54.6444C104.507 55.5595 105.32 57.1644 105.787 58.2254C106.253 59.2865 106.853 60.7985 107.133 61.6075C107.4 62.4166 107.787 63.7164 108 64.5254C108.213 65.3345 108.507 66.6741 108.653 67.5096C108.8 68.3452 108.987 69.844 109.08 70.8254C109.173 71.9395 109.213 73.677 109.16 75.4012C109.12 76.9265 108.987 78.8098 108.867 79.5791C108.747 80.3484 108.507 81.6614 108.32 82.497C108.133 83.3326 107.68 84.9109 107.307 86.0117C106.947 87.0993 106.293 88.7837 105.853 89.7254C105.413 90.6671 104.627 92.1791 104.093 93.081C103.573 93.9829 102.653 95.3623 102.067 96.1581C101.48 96.9406 100.467 98.2006 99.8 98.9566C99.1333 99.6993 97.9733 100.88 97.2 101.569C96.4267 102.259 95.2 103.28 94.4667 103.837C93.7333 104.381 92.5333 105.217 91.8 105.681C91.0667 106.145 89.72 106.901 88.8 107.352C87.88 107.816 86.44 108.466 85.6 108.798C84.76 109.129 83.32 109.607 82.4 109.872C81.48 110.124 80.1333 110.456 79.4 110.602C78.6667 110.748 77.28 110.96 76.3333 111.079C75.3467 111.185 73.48 111.278 72 111.278C70.52 111.278 68.6533 111.185 67.6667 111.079C66.72 110.96 65.2133 110.721 64.3333 110.549C63.4533 110.363 62.16 110.045 61.4667 109.832C60.7733 109.62 59.7867 109.302 59.2667 109.116C58.7467 108.93 57.8267 108.559 57.2 108.294C56.5733 108.029 55.3733 107.458 54.5333 107.007C53.6933 106.57 52.3067 105.761 51.4667 105.204C50.6267 104.646 49.3333 103.718 48.6 103.134C47.8667 102.551 46.5733 101.384 45.72 100.535C44.88 99.6993 43.68 98.3863 43.0667 97.617C42.4667 96.8477 41.56 95.6275 41.0667 94.8981C40.5733 94.1686 39.8533 93.0014 39.4667 92.3117C39.0667 91.6221 38.4267 90.3355 38.0267 89.4602C37.64 88.5848 37.0267 87.0065 36.6667 85.9454C36.3067 84.8844 35.8667 83.3326 35.68 82.497C35.4933 81.6614 35.24 80.2821 35.1067 79.4465C34.92 78.2395 34.8667 77.1387 34.8667 74.2075C34.8667 71.3162 34.92 70.1623 35.1067 68.9686C35.24 68.133 35.4667 66.8465 35.6267 66.117C35.7733 65.3875 36.0933 64.101 36.3333 63.2654C36.5867 62.4298 37.0533 61.024 37.4 60.1486C37.7333 59.2732 38.4 57.7745 38.8667 56.8328C39.3333 55.8911 40.16 54.3658 40.7067 53.4507C41.2533 52.5355 42.2 51.0898 42.8133 50.241C43.4267 49.3922 44.5867 47.8934 45.4 46.9252C46.2 45.957 48.1733 43.8614 49.76 42.2699L52.6667 39.3917C51.68 39.2724 51.04 39.153 50.6 39.0469C50.16 38.9408 49.32 38.6225 48.7333 38.344C48.0933 38.0256 47.32 37.5084 46.8 37.0309C46.32 36.6065 45.6933 35.9035 45.4 35.4658Z" fill="#030303"/>
<path d="M57.7869 24.8418C57.8669 24.8683 57.9335 24.9479 57.9335 25.0142C57.9335 25.0806 57.8402 25.6774 57.7469 26.3273C57.6269 27.1231 57.5869 28.1443 57.6402 29.3778C57.6669 30.3991 57.8135 31.7121 57.9335 32.2957C58.0535 32.8793 58.3069 33.8608 58.4935 34.4841C58.6669 35.1075 59.0269 36.142 59.2935 36.8052C59.5469 37.4551 60.1202 38.7151 60.5469 39.5905C60.9735 40.4658 61.7469 41.9248 62.2802 42.8399C62.8002 43.7551 64.5069 46.5271 66.0669 49.0073C67.6269 51.4875 69.2935 54.2065 69.7602 55.042C70.2402 55.8776 70.9602 57.2172 71.3602 58.0262C71.7735 58.822 72.3869 60.2014 72.7335 61.0768C73.0802 61.9521 73.5335 63.358 73.7469 64.1936C73.9735 65.0292 74.2135 66.4351 74.2935 67.3105C74.4135 68.5174 74.4135 69.2734 74.2935 70.4273C74.2002 71.2629 73.9869 72.5229 73.8002 73.2126C73.5869 73.9951 73.1202 75.1755 72.5335 76.3294C71.9335 77.5496 71.2269 78.6902 70.5069 79.6452C69.8935 80.441 68.6802 81.8203 67.8002 82.709C66.9202 83.5843 65.1469 85.2422 63.8669 86.3696C62.5869 87.497 60.9602 89.0222 60.2535 89.7385C59.5602 90.4547 58.6669 91.5025 58.2802 92.0462C57.8935 92.59 57.3469 93.5052 57.0535 94.0622C56.7735 94.6326 56.3869 95.5875 56.2135 96.1843C56.0402 96.7945 55.8269 97.882 55.7469 98.6115C55.6535 99.5001 55.6535 100.429 55.7335 101.397C55.8002 102.193 55.8135 102.896 55.7602 102.949C55.7069 103.015 55.1335 102.723 54.4669 102.312C53.8135 101.901 52.6935 101.145 52.0002 100.614C51.3069 100.097 50.0535 99.0094 49.2135 98.2136C48.3869 97.4178 47.2135 96.1843 46.6402 95.4947C46.0535 94.805 45.0935 93.5185 44.5069 92.6431C43.9202 91.7677 43.0002 90.1496 42.4669 89.062C41.9202 87.9612 41.2669 86.4757 41.0002 85.7462C40.7202 85.0168 40.3069 83.6374 40.0669 82.6957C39.8269 81.754 39.5069 80.2818 39.3735 79.4462C39.1735 78.1995 39.1335 77.1915 39.1469 74.0084C39.1469 70.6793 39.1869 69.8172 39.4402 68.2389C39.6002 67.2176 39.9069 65.6658 40.1202 64.7905C40.3335 63.9151 40.7069 62.6551 40.9335 62.0052C41.1735 61.3553 41.6269 60.2147 41.9602 59.4852C42.2802 58.7557 42.8802 57.562 43.2802 56.8326C43.6935 56.1031 44.6269 54.538 45.3735 53.3444C46.1202 52.1639 46.8002 51.209 46.8669 51.2488C46.9469 51.2753 46.9869 51.3416 46.9735 51.4079C46.9602 51.4742 46.6669 52.3098 46.3335 53.2515C46.0002 54.1932 45.5869 55.6256 45.3869 56.4347C45.1469 57.4692 45.0269 58.4374 44.9735 59.7505C44.9335 60.8115 44.9602 61.9256 45.0402 62.3368C45.1202 62.7347 45.3202 63.4244 45.4802 63.862C45.6535 64.2997 46.0135 64.9364 46.2935 65.2812C46.6535 65.7321 47.0669 66.0505 47.6935 66.3422C48.4935 66.7269 48.7069 66.7799 49.6669 66.7667C50.3869 66.7534 50.9869 66.6473 51.5335 66.4616C51.9735 66.3025 52.6935 65.9444 53.1335 65.6791C53.5735 65.4138 54.3335 64.8037 54.8135 64.3262C55.3069 63.8488 56.0535 62.9203 56.4802 62.2705C56.9069 61.6206 57.4669 60.5728 57.7069 59.9494C57.9602 59.326 58.3069 58.2782 58.4669 57.6283C58.6402 56.9785 58.8535 55.7185 58.9335 54.8431C59.0269 53.9279 59.0535 52.6945 59.0002 51.9252C58.9602 51.1957 58.8269 50.002 58.7202 49.2726C58.6135 48.5431 58.3335 47.2035 58.0802 46.2883C57.8402 45.3732 57.2935 43.5296 56.8802 42.1768C56.4669 40.8239 55.9735 39.0334 55.7869 38.1978C55.5335 37.0174 55.4402 36.1553 55.3735 34.3515C55.3202 32.5742 55.3469 31.7519 55.5069 30.8368C55.6269 30.1869 55.9069 29.0728 56.1335 28.3831C56.3602 27.6934 56.8002 26.5926 57.0935 25.9559C57.4002 25.3193 57.7069 24.8153 57.7869 24.8418Z" fill="#FF4C00"/>
<path d="M84.4935 9.08516C84.5201 9.12495 84.4135 9.31063 84.2801 9.52284C84.1335 9.72179 83.7468 10.4513 83.4268 11.1409C83.0935 11.8306 82.6935 12.8784 82.5601 13.462C82.4135 14.0456 82.2535 14.9475 82.2001 15.4515C82.1601 15.9555 82.1735 16.8839 82.2535 17.5073C82.3335 18.1306 82.5735 19.2049 82.8001 19.8946C83.0268 20.5843 83.5468 21.8443 83.9735 22.6799C84.4001 23.5155 85.3868 25.2795 86.1735 26.5925C86.9468 27.9056 87.8801 29.6033 88.2535 30.3725C88.6135 31.1418 89.0401 32.1233 89.1735 32.5609C89.3201 32.9986 89.5335 33.8209 89.6535 34.3913C89.7735 34.9483 89.8668 35.9828 89.8668 36.6725C89.8668 37.3622 89.8268 37.9325 89.7735 37.9325C89.7068 37.9325 87.6801 35.9828 85.2535 33.5955C82.4535 30.85 80.4801 28.7809 79.8668 27.9852C79.3335 27.2955 78.6668 26.3405 78.3868 25.8631C78.1068 25.3856 77.7201 24.55 77.5201 24.0062C77.2801 23.3165 77.1468 22.6268 77.1068 21.7515C77.0401 20.7302 77.0935 20.2793 77.3201 19.3641C77.4801 18.7407 77.8401 17.7593 78.1201 17.1757C78.4135 16.5921 78.9335 15.6637 79.2935 15.1199C79.6535 14.5761 80.4268 13.5283 81.0135 12.7988C81.6001 12.0694 82.6135 10.9155 83.2668 10.2391C83.9068 9.56263 84.4668 9.04537 84.4935 9.08516Z" fill="#FF4C00"/>
<path d="M73.4134 0C73.5201 0 73.6001 0.0663158 73.6001 0.132632C73.6001 0.198947 73.3467 0.756 73.0534 1.36611C72.7467 1.96295 72.1867 3.22295 71.8001 4.17789C71.4134 5.13284 70.9201 6.56526 70.6934 7.36105C70.4667 8.15684 70.1734 9.35053 70.0401 10.0137C69.8667 10.9023 69.8134 11.8705 69.8001 13.7937C69.8001 15.7832 69.8534 16.6585 70.0534 17.5737C70.1867 18.2236 70.5067 19.4173 70.7734 20.2263C71.0267 21.0354 71.6401 22.4545 72.1201 23.4095C72.6134 24.3644 73.4667 25.8234 74.0267 26.6589C74.5867 27.4945 75.5601 28.8076 76.1734 29.5768C76.8001 30.3461 77.8534 31.5928 78.5334 32.3621C79.2134 33.1314 80.1601 34.1659 80.6534 34.6699C81.1334 35.1739 83.1467 37.1236 85.1201 38.9804C87.0934 40.8505 89.5467 43.2777 90.5734 44.3653C91.6001 45.4661 92.9201 46.9251 93.4934 47.6147C94.0801 48.3044 95.0801 49.5644 95.7201 50.4C96.3601 51.2356 97.3067 52.5486 97.8267 53.3179C98.3334 54.0872 99.0667 55.2543 99.4667 55.9042C99.8534 56.5541 100.52 57.8008 100.947 58.6629C101.387 59.5118 101.96 60.7718 102.253 61.435C102.533 62.1114 102.987 63.3581 103.253 64.1937C103.533 65.0293 103.893 66.3158 104.08 67.0453C104.253 67.7747 104.507 69.0347 104.627 69.8305C104.8 70.9314 104.867 72.0985 104.867 74.6053C104.867 77.1651 104.813 78.2659 104.613 79.4463C104.48 80.2819 104.173 81.7541 103.933 82.6958C103.693 83.6375 103.267 85.0434 102.987 85.8126C102.707 86.5819 102.04 88.0674 101.52 89.1284C100.987 90.1895 100.093 91.7413 99.5334 92.5768C98.9734 93.4124 98.0134 94.699 97.4001 95.4284C96.8001 96.1579 95.7334 97.2985 95.0534 97.9617C94.3601 98.6116 93.3467 99.5135 92.8001 99.9512C92.2534 100.389 91.3201 101.092 90.7334 101.49C90.1467 101.901 89.0001 102.604 88.2001 103.068C87.3867 103.519 86.1601 104.156 85.4667 104.461C84.7734 104.766 83.5734 105.23 82.8001 105.495C82.0267 105.774 80.8267 106.132 80.1334 106.304C79.4401 106.477 78.1467 106.755 77.2667 106.914C76.0934 107.113 74.8934 107.219 72.8001 107.259C70.6001 107.312 69.5201 107.272 68.1334 107.113C67.1467 106.994 65.6667 106.742 64.8667 106.556C64.0534 106.384 63.0401 106.119 61.8001 105.734L61.5467 104.898C61.3467 104.235 61.2934 103.612 61.2801 101.994C61.2667 100.216 61.3067 99.792 61.5734 98.8768C61.7467 98.2933 62.0934 97.3648 62.3467 96.8211C62.6001 96.2773 63.2001 95.256 63.6667 94.5663C64.1334 93.8766 64.9067 92.8288 65.4001 92.2453C65.8801 91.6617 67.4667 89.9242 68.9201 88.399C70.3734 86.8737 71.9334 85.2025 72.3867 84.6853C72.8534 84.168 73.6534 83.1865 74.1867 82.4968C74.7201 81.8072 75.4801 80.6665 75.8934 79.9768C76.3067 79.2872 76.8534 78.2128 77.1067 77.5895C77.3734 76.9661 77.7334 75.9316 77.9334 75.2684C78.1201 74.6053 78.4001 73.3983 78.5467 72.576C78.7201 71.568 78.8001 70.4804 78.8001 69.1674C78.8001 68.0931 78.7067 66.5811 78.5867 65.7455C78.4667 64.9364 78.1601 63.5173 77.9067 62.6021C77.6667 61.687 77.1867 60.2545 76.8534 59.419C76.5201 58.5834 75.7734 56.9653 75.2134 55.8379C74.6401 54.7105 73.6267 52.8537 72.9334 51.7263C72.2534 50.5989 70.8667 48.4503 69.8534 46.9516C68.8534 45.4528 67.2934 43.1848 66.4001 41.9116C65.5067 40.6383 64.4534 38.9672 64.0667 38.1979C63.6801 37.4286 63.1867 36.2615 62.9601 35.6116C62.7334 34.9617 62.4267 33.8476 62.2801 33.1579C62.1334 32.4682 61.9467 31.3541 61.8667 30.7042C61.8001 30.0543 61.7334 28.7413 61.7334 27.7863C61.7334 26.8314 61.8267 25.3194 61.9334 24.4042C62.0401 23.4891 62.2801 22.0036 62.4801 21.0884C62.6667 20.1733 63.0267 18.7408 63.2801 17.9053C63.5201 17.0697 63.9867 15.6903 64.3067 14.8547C64.6267 14.0192 65.0934 12.8785 65.3334 12.3347C65.5734 11.7909 66.0667 10.7432 66.4267 10.0137C66.8001 9.28421 67.6401 7.77221 68.3067 6.64484C68.9867 5.53074 70.0401 3.93916 70.6534 3.13011C71.2667 2.32105 72.0934 1.28653 72.4934 0.822316C72.9067 0.371368 73.3201 0 73.4134 0Z" fill="#F4129A"/>
</svg>
