<?xml version="1.0" encoding="UTF-8" standalone="no"?>
<svg
   xmlns:dc="http://purl.org/dc/elements/1.1/"
   xmlns:cc="http://creativecommons.org/ns#"
   xmlns:rdf="http://www.w3.org/1999/02/22-rdf-syntax-ns#"
   xmlns:svg="http://www.w3.org/2000/svg"
   xmlns="http://www.w3.org/2000/svg"
   xmlns:sodipodi="http://sodipodi.sourceforge.net/DTD/sodipodi-0.dtd"
   xmlns:inkscape="http://www.inkscape.org/namespaces/inkscape"
   inkscape:version="1.0 (4035a4f, 2020-05-01)"
   sodipodi:docname="schedule.svg"
   id="svg2170"
   version="1.1"
   viewBox="0 0 25 25">
  <metadata
     id="metadata2174">
    <rdf:RDF>
      <cc:Work
         rdf:about="">
        <dc:format>image/svg+xml</dc:format>
        <dc:type
           rdf:resource="http://purl.org/dc/dcmitype/StillImage" />
      </cc:Work>
    </rdf:RDF>
  </metadata>
  <sodipodi:namedview
     inkscape:current-layer="svg2170"
     inkscape:window-maximized="0"
     inkscape:window-y="25"
     inkscape:window-x="0"
     inkscape:cy="12.5"
     inkscape:cx="12.5"
     inkscape:zoom="29.4"
     showgrid="false"
     id="namedview2172"
     inkscape:window-height="928"
     inkscape:window-width="1559"
     inkscape:pageshadow="2"
     inkscape:pageopacity="0"
     guidetolerance="10"
     gridtolerance="10"
     objecttolerance="10"
     borderopacity="1"
     bordercolor="#666666"
     pagecolor="#ffffff" />
  <defs
     id="defs2163">
    <style
       id="style2161">.cls-1{fill:#231f20;}</style>
  </defs>
  <g
     style="fill:#ffffff"
     id="schedule">
    <path
       style="fill:#ffffff"
       id="path2165"
       d="M22.5,3H21V2a1,1,0,0,0-1-1H19a1,1,0,0,0-1,1V3H14V2a1,1,0,0,0-1-1H12a1,1,0,0,0-1,1V3H7V2A1,1,0,0,0,6,1H5A1,1,0,0,0,4,2V3H2.5A1.5,1.5,0,0,0,1,4.5v18A1.5,1.5,0,0,0,2.5,24h16A5.51,5.51,0,0,0,24,18.5s0-.08,0-.13,0,0,0,0V4.5A1.5,1.5,0,0,0,22.5,3ZM19,2l1,0,0,3L19,5ZM12,2l1,0V3.44s0,0,0,.06,0,0,0,.07L13,5,12,5ZM5,2,6,2,6,5,5,5ZM2.5,4H4V5A1,1,0,0,0,5,6H6A1,1,0,0,0,7,5V4h4V5a1,1,0,0,0,1,1H13a1,1,0,0,0,1-1V4h4V5a1,1,0,0,0,1,1H20a1,1,0,0,0,1-1V4h1.5a.5.5,0,0,1,.5.5V8H2V4.5A.5.5,0,0,1,2.5,4Zm16,19A4.5,4.5,0,1,1,23,18.5,4.51,4.51,0,0,1,18.5,23Zm0-10a5.49,5.49,0,0,0-3.15,10H2.5a.5.5,0,0,1-.5-.5V9H23v6.35A5.49,5.49,0,0,0,18.5,13Z"
       class="cls-1" />
    <path
       style="fill:#ffffff"
       id="path2167"
       d="M20.72,19.05,19,18.19V16.5a.5.5,0,0,0-1,0v2a.51.51,0,0,0,.28.45l2,1a.54.54,0,0,0,.22.05.5.5,0,0,0,.22-.95Z"
       class="cls-1" />
  </g>
</svg>
